<svg width="23" height="23" viewBox="0 0 23 23" fill="none" xmlns="http://www.w3.org/2000/svg">
<g clip-path="url(#clip0_1_1357)">
<path d="M8.14496 0.87527C5.93603 1.64157 4.03105 3.09603 2.70984 5.02501C1.38862 6.954 0.720808 9.25583 0.804491 11.5924C0.888175 13.929 1.71894 16.1771 3.17477 18.0067C4.6306 19.8362 6.63474 21.1506 8.89283 21.757C10.7235 22.2293 12.6415 22.2501 14.482 21.8174C16.1493 21.4429 17.6907 20.6418 18.9554 19.4926C20.2717 18.26 21.2271 16.6919 21.7189 14.957C22.2533 13.0703 22.3485 11.0863 21.997 9.15713H11.7168V13.4216H17.6704C17.5514 14.1017 17.2964 14.7508 16.9207 15.3302C16.545 15.9095 16.0563 16.407 15.4838 16.793C14.7569 17.2741 13.9373 17.5977 13.0778 17.743C12.2158 17.9033 11.3317 17.9033 10.4698 17.743C9.59606 17.5625 8.76958 17.202 8.04306 16.6842C6.87574 15.8579 5.99924 14.684 5.53864 13.33C5.07038 11.9507 5.07038 10.4553 5.53864 9.07595C5.8665 8.1091 6.40851 7.22879 7.12419 6.50072C7.94321 5.65223 8.98011 5.04573 10.1211 4.74775C11.2622 4.44978 12.4632 4.47184 13.5925 4.81153C14.4748 5.08222 15.2815 5.55539 15.9484 6.19328C16.6197 5.52543 17.2898 4.85586 17.9588 4.18456C18.3043 3.82358 18.6808 3.47987 19.0211 3.11025C18.0029 2.16292 16.8079 1.42573 15.5045 0.940903C13.1308 0.0790194 10.5336 0.055857 8.14496 0.87527Z" fill="white"/>
<path d="M8.14481 0.875194C10.5333 0.055224 13.1305 0.0777766 15.5044 0.9391C16.808 1.42722 18.0025 2.16796 19.0192 3.11881C18.6737 3.48843 18.3093 3.83386 17.957 4.19312C17.2868 4.86212 16.6172 5.52881 15.9482 6.1932C15.2814 5.55531 14.4746 5.08214 13.5924 4.81145C12.4634 4.47058 11.2624 4.44724 10.1211 4.74399C8.97977 5.04075 7.94223 5.64614 7.12231 6.49373C6.40663 7.2218 5.86462 8.10212 5.53676 9.06897L1.9563 6.29683C3.23789 3.75538 5.45687 1.81137 8.14481 0.875194Z" fill="#E33629"/>
<path d="M1.0064 9.0431C1.19871 8.0893 1.51821 7.16564 1.95636 6.29688L5.53681 9.07592C5.06855 10.4553 5.06855 11.9506 5.53681 13.33C4.3439 14.2511 3.15042 15.1769 1.95636 16.1073C0.859852 13.9247 0.525437 11.4379 1.0064 9.0431Z" fill="#F8BD00"/>
<path d="M11.7167 9.15527H21.9969C22.3484 11.0844 22.2533 13.0685 21.7188 14.9552C21.227 16.6901 20.2716 18.2581 18.9554 19.4908C17.7999 18.5892 16.6392 17.6945 15.4837 16.7929C16.0566 16.4065 16.5455 15.9084 16.9213 15.3285C17.297 14.7485 17.5518 14.0987 17.6703 13.418H11.7167C11.715 11.9982 11.7167 10.5767 11.7167 9.15527Z" fill="#587DBD"/>
<path d="M1.95459 16.1073C3.14865 15.1862 4.34214 14.2604 5.53505 13.33C5.99657 14.6845 6.87432 15.8584 8.04292 16.6842C8.77171 17.1995 9.59997 17.5572 10.4748 17.7343C11.3368 17.8947 12.2209 17.8947 13.0829 17.7343C13.9424 17.5891 14.7619 17.2655 15.4888 16.7844C16.6443 17.686 17.805 18.5807 18.9605 19.4823C17.696 20.6321 16.1545 21.4338 14.4871 21.8088C12.6466 22.2414 10.7286 22.2207 8.89788 21.7483C7.44998 21.3617 6.09755 20.6802 4.92535 19.7465C3.68476 18.7614 2.67143 17.52 1.95459 16.1073Z" fill="#319F43"/>
</g>
<defs>
<clipPath id="clip0_1_1357">
<rect width="22.108" height="22.108" fill="white" transform="translate(0.443359 0.148071)"/>
</clipPath>
</defs>
</svg>
